{
  "accessors": [
    {
      "bufferView": 2,
      "componentType": 5126,
      "count": 65532,
      "max": [
        9.2467422485351562,
        -8.7621860504150391,
        10.087705612182617
      ],
      "min": [
        -5.8102293014526367,
        -17.411376953125,
        -11.562883377075195
      ],
      "type": "VEC3"
    },
    {
      "bufferView": 2,
      "byteOffset": 786384,
      "componentType": 5126,
      "count": 65532,
      "max": [
        0.9999961256980896,
        0.99997556209564209,
        0.99998188018798828
      ],
      "min": [
        -0.99998319149017334,
        -0.99986588954925537,
        -0.99970871210098267
      ],
      "type": "VEC3"
    },
    {
      "bufferView": 3,
      "componentType": 5126,
      "count": 65532,
      "max": [
        0.99999988079071045,
        0.99999988079071045,
        0.99988144636154175,
        -1
      ],
      "min": [
        -1,
        -1,
        -0.99635303020477295,
        -1
      ],
      "type": "VEC4"
    },
    {
      "bufferView": 3,
      "byteOffset": 1048512,
      "componentType": 5126,
      "count": 65532,
      "max": [
        0.92156863212585449,
        0.87843137979507446,
        0.69411766529083252,
        1
      ],
      "min": [
        0,
        0,
        0,
        1
      ],
      "type": "VEC4"
    },
    {
      "bufferView": 1,
      "componentType": 5126,
      "count": 65532,
      "max": [
        0.99975597858428955,
        0.97729498147964478
      ],
      "min": [
        0.00024399999529123306,
        0.00024399999529123306
      ],
      "type": "VEC2"
    },
    {
      "bufferView": 0,
      "componentType": 5125,
      "count": 267681,
      "max": [
        65531
      ],
      "min": [
        0
      ],
      "type": "SCALAR"
    },
    {
      "bufferView": 2,
      "byteOffset": 1572768,
      "componentType": 5126,
      "count": 65532,
      "max": [
        8.7350797653198242,
        -8.7650222778320312,
        10.087705612182617
      ],
      "min": [
        -5.9297008514404297,
        -23.163356781005859,
        -11.144102096557617
      ],
      "type": "VEC3"
    },
    {
      "bufferView": 2,
      "byteOffset": 2359152,
      "componentType": 5126,
      "count": 65532,
      "max": [
        0.99996227025985718,
        0.99997293949127197,
        0.99996459484100342
      ],
      "min": [
        -0.99994021654129028,
        -0.99997514486312866,
        -0.99997162818908691
      ],
      "type": "VEC3"
    },
    {
      "bufferView": 3,
      "byteOffset": 2097024,
      "componentType": 5126,
      "count": 65532,
      "max": [
        0.99999940395355225,
        0.9999995231628418,
        0.99719160795211792,
        1
      ],
      "min": [
        -0.99999833106994629,
        -1,
        -0.99931007623672485,
        -1
      ],
      "type": "VEC4"
    },
    {
      "bufferView": 3,
      "byteOffset": 3145536,
      "componentType": 5126,
      "count": 65532,
      "max": [
        0.92156863212585449,
        0.87843137979507446,
        0.69803923368453979,
        1
      ],
      "min": [
        0,
        0,
        0,
        1
      ],
      "type": "VEC4"
    },
    {
      "bufferView": 1,
      "byteOffset": 524256,
      "componentType": 5126,
      "count": 65532,
      "max": [
        0.99975597858428955,
        0.9821779727935791
      ],
      "min": [
        0.00024399999529123306,
        0.00024399999529123306
      ],
      "type": "VEC2"
    },
    {
      "bufferView": 0,
      "byteOffset": 1070724,
      "componentType": 5125,
      "count": 239493,
      "max": [
        65531
      ],
      "min": [
        0
      ],
      "type": "SCALAR"
    },
    {
      "bufferView": 2,
      "byteOffset": 3145536,
      "componentType": 5126,
      "count": 65532,
      "max": [
        9.9025840759277344,
        -12.07119083404541,
        10.018758773803711
      ],
      "min": [
        -2.6089510917663574,
        -23.447793960571289,
        -11.598796844482422
      ],
      "type": "VEC3"
    },
    {
      "bufferView": 2,
      "byteOffset": 3931920,
      "componentType": 5126,
      "count": 65532,
      "max": [
        0.99998843669891357,
        0.99997293949127197,
        0.99995261430740356
      ],
      "min": [
        -0.99912095069885254,
        -0.99998533725738525,
        -0.99997580051422119
      ],
      "type": "VEC3"
    },
    {
      "bufferView": 3,
      "byteOffset": 4194048,
      "componentType": 5126,
      "count": 65532,
      "max": [
        1,
        0.9999995231628418,
        0.99987608194351196,
        -1
      ],
      "min": [
        -0.99999904632568359,
        -0.9999992847442627,
        -0.99934601783752441,
        -1
      ],
      "type": "VEC4"
    },
    {
      "bufferView": 3,
      "byteOffset": 5242560,
      "componentType": 5126,
      "count": 65532,
      "max": [
        0.93725490570068359,
        0.88235294818878174,
        0.7450980544090271,
        1
      ],
      "min": [
        0,
        0,
        0,
        1
      ],
      "type": "VEC4"
    },
    {
      "bufferView": 1,
      "byteOffset": 1048512,
      "componentType": 5126,
      "count": 65532,
      "max": [
        0.99975597858428955,
        0.97338902950286865
      ],
      "min": [
        0.00024399999529123306,
        0.00024399999529123306
      ],
      "type": "VEC2"
    },
    {
      "bufferView": 0,
      "byteOffset": 2028696,
      "componentType": 5125,
      "count": 250692,
      "max": [
        65531
      ],
      "min": [
        0
      ],
      "type": "SCALAR"
    },
    {
      "bufferView": 2,
      "byteOffset": 4718304,
      "componentType": 5126,
      "count": 65534,
      "max": [
        9.9025840759277344,
        -11.62938117980957,
        10.070721626281738
      ],
      "min": [
        -3.6342434883117676,
        -23.374746322631836,
        -11.280969619750977
      ],
      "type": "VEC3"
    },
    {
      "bufferView": 2,
      "byteOffset": 5504712,
      "componentType": 5126,
      "count": 65534,
      "max": [
        0.99988162517547607,
        0.99988210201263428,
        0.99984896183013916
      ],
      "min": [
        -0.99997252225875854,
        -0.99998092651367188,
        -0.99988687038421631
      ],
      "type": "VEC3"
    },
    {
      "bufferView": 3,
      "byteOffset": 6291072,
      "componentType": 5126,
      "count": 65534,
      "max": [
        1,
        1,
        0.99982398748397827,
        -1
      ],
      "min": [
        -0.99999970197677612,
        -0.99999988079071045,
        -0.99997574090957642,
        -1
      ],
      "type": "VEC4"
    },
    {
      "bufferView": 3,
      "byteOffset": 7339616,
      "componentType": 5126,
      "count": 65534,
      "max": [
        0.95686274766921997,
        0.90980392694473267,
        0.80784314870834351,
        1
      ],
      "min": [
        0.023529412224888802,
        0.0039215688593685627,
        0,
        1
      ],
      "type": "VEC4"
    },
    {
      "bufferView": 1,
      "byteOffset": 1572768,
      "componentType": 5126,
      "count": 65534,
      "max": [
        0.99975597858428955,
        0.99194300174713135
      ],
      "min": [
        0.00024399999529123306,
        0.00024399999529123306
      ],
      "type": "VEC2"
    },
    {
      "bufferView": 0,
      "byteOffset": 3031464,
      "componentType": 5125,
      "count": 209826,
      "max": [
        65533
      ],
      "min": [
        0
      ],
      "type": "SCALAR"
    },
    {
      "bufferView": 2,
      "byteOffset": 6291120,
      "componentType": 5126,
      "count": 65532,
      "max": [
        4.4887571334838867,
        -10.45804500579834,
        10.005594253540039
      ],
      "min": [
        -5.8968009948730469,
        -21.199703216552734,
        -11.734672546386719
      ],
      "type": "VEC3"
    },
    {
      "bufferView": 2,
      "byteOffset": 7077504,
      "componentType": 5126,
      "count": 65532,
      "max": [
        0.99991661310195923,
        0.99995148181915283,
        0.99997729063034058
      ],
      "min": [
        -0.99999797344207764,
        -0.99999022483825684,
        -0.99993860721588135
      ],
      "type": "VEC3"
    },
    {
      "bufferView": 3,
      "byteOffset": 8388160,
      "componentType": 5126,
      "count": 65532,
      "max": [
        0.99999958276748657,
        1,
        0.99919629096984863,
        -1
      ],
      "min": [
        -1,
        -1,
        -0.99999922513961792,
        -1
      ],
      "type": "VEC4"
    },
    {
      "bufferView": 3,
      "byteOffset": 9436672,
      "componentType": 5126,
      "count": 65532,
      "max": [
        0.95686274766921997,
        0.90980392694473267,
        0.88235294818878174,
        1
      ],
      "min": [
        0.0039215688593685627,
        0.0039215688593685627,
        0,
        1
      ],
      "type": "VEC4"
    },
    {
      "bufferView": 1,
      "byteOffset": 2097040,
      "componentType": 5126,
      "count": 65532,
      "max": [
        0.99975597858428955,
        0.97508901357650757
      ],
      "min": [
        0.00024399999529123306,
        0.00024399999529123306
      ],
      "type": "VEC2"
    },
    {
      "bufferView": 0,
      "byteOffset": 3870768,
      "componentType": 5125,
      "count": 205575,
      "max": [
        65531
      ],
      "min": [
        0
      ],
      "type": "SCALAR"
    },
    {
      "bufferView": 2,
      "byteOffset": 7863888,
      "componentType": 5126,
      "count": 65532,
      "max": [
        3.0780980587005615,
        -11.458034515380859,
        3.8515300750732422
      ],
      "min": [
        -5.9228553771972656,
        -23.430524826049805,
        -10.423137664794922
      ],
      "type": "VEC3"
    },
    {
      "bufferView": 2,
      "byteOffset": 8650272,
      "componentType": 5126,
      "count": 65532,
      "max": [
        0.99954921007156372,
        0.99962657690048218,
        0.99999481439590454
      ],
      "min": [
        -0.99999278783798218,
        -0.99998092651367188,
        -0.99976122379302979
      ],
      "type": "VEC3"
    },
    {
      "bufferView": 3,
      "byteOffset": 10485184,
      "componentType": 5126,
      "count": 65532,
      "max": [
        0.99999988079071045,
        0.99999988079071045,
        0.99386745691299438,
        -1
      ],
      "min": [
        -1,
        -1,
        -0.99955105781555176,
        -1
      ],
      "type": "VEC4"
    },
    {
      "bufferView": 3,
      "byteOffset": 11533696,
      "componentType": 5126,
      "count": 65532,
      "max": [
        0.95686274766921997,
        0.90980392694473267,
        0.729411780834198,
        1
      ],
      "min": [
        0,
        0,
        0,
        1
      ],
      "type": "VEC4"
    },
    {
      "bufferView": 1,
      "byteOffset": 2621296,
      "componentType": 5126,
      "count": 65532,
      "max": [
        0.99975597858428955,
        0.98510700464248657
      ],
      "min": [
        0.00024399999529123306,
        0.00024399999529123306
      ],
      "type": "VEC2"
    },
    {
      "bufferView": 0,
      "byteOffset": 4693068,
      "componentType": 5125,
      "count": 226764,
      "max": [
        65531
      ],
      "min": [
        0
      ],
      "type": "SCALAR"
    },
    {
      "bufferView": 2,
      "byteOffset": 9436656,
      "componentType": 5126,
      "count": 38175,
      "max": [
        3.3447873592376709,
        -11.431015968322754,
        3.8608369827270508
      ],
      "min": [
        -5.9297008514404297,
        -23.066581726074219,
        -10.431476593017578
      ],
      "type": "VEC3"
    },
    {
      "bufferView": 2,
      "byteOffset": 9894756,
      "componentType": 5126,
      "count": 38175,
      "max": [
        0.99776649475097656,
        0.99997133016586304,
        0.99998188018798828
      ],
      "min": [
        -0.99997943639755249,
        -0.99995380640029907,
        -0.99992763996124268
      ],
      "type": "VEC3"
    },
    {
      "bufferView": 3,
      "byteOffset": 12582208,
      "componentType": 5126,
      "count": 38175,
      "max": [
        0.99999964237213135,
        0.99997198581695557,
        0.99132108688354492,
        1
      ],
      "min": [
        -0.99999934434890747,
        -1,
        -0.999889075756073,
        -1
      ],
      "type": "VEC4"
    },
    {
      "bufferView": 3,
      "byteOffset": 13193008,
      "componentType": 5126,
      "count": 38175,
      "max": [
        0.87843137979507446,
        0.83137255907058716,
        0.61960786581039429,
        1
      ],
      "min": [
        0,
        0,
        0,
        1
      ],
      "type": "VEC4"
    },
    {
      "bufferView": 1,
      "byteOffset": 3145552,
      "componentType": 5126,
      "count": 38175,
      "max": [
        0.99975597858428955,
        0.96069300174713135
      ],
      "min": [
        0.00024399999529123306,
        0.00024399999529123306
      ],
      "type": "VEC2"
    },
    {
      "bufferView": 0,
      "byteOffset": 5600124,
      "componentType": 5125,
      "count": 99969,
      "max": [
        38174
      ],
      "min": [
        0
      ],
      "type": "SCALAR"
    }
  ],
  "asset": {
    "extras": {
      "author": "Geoffrey Marchal (https://sketchfab.com/geoffreymarchal)",
      "license": "CC-BY-NC-4.0 (http://creativecommons.org/licenses/by-nc/4.0/)",
      "source": "https://sketchfab.com/models/438a06818f954f8191da677303ac7987",
      "title": "Homo erectus georgicus"
    },
    "generator": "Sketchfab-3.32.3",
    "version": "2.0"
  },
  "bufferViews": [
    {
      "buffer": 0,
      "byteLength": 6000000,
      "byteOffset": 0,
      "name": "floatBufferViews",
      "target": 34963
    },
    {
      "buffer": 0,
      "byteLength": 3450952,
      "byteOffset": 6000000,
      "byteStride": 8,
      "name": "floatBufferViews",
      "target": 34962
    },
    {
      "buffer": 0,
      "byteLength": 10352856,
      "byteOffset": 9450952,
      "byteStride": 12,
      "name": "floatBufferViews",
      "target": 34962
    },
    {
      "buffer": 0,
      "byteLength": 13803808,
      "byteOffset": 19803808,
      "byteStride": 16,
      "name": "floatBufferViews",
      "target": 34962
    }
  ],
  "buffers": [
    {
      "byteLength": 33607616,
      "uri": "scene.bin"
    }
  ],
  "images": [
    {
      "uri": "textures/georgicus_-_LowPoly_Material_u1_v1_baseColor.jpeg"
    }
  ],
  "materials": [
    {
      "doubleSided": true,
      "name": "georgicus_-_LowPoly_Material_u1_v1",
      "pbrMetallicRoughness": {
        "baseColorFactor": [
          1,
          1,
          1,
          1
        ],
        "baseColorTexture": {
          "index": 0,
          "texCoord": 0
        },
        "metallicFactor": 0,
        "roughnessFactor": 1
      }
    }
  ],
  "meshes": [
    {
      "primitives": [
        {
          "attributes": {
            "COLOR_0": 3,
            "NORMAL": 1,
            "POSITION": 0,
            "TANGENT": 2,
            "TEXCOORD_0": 4
          },
          "indices": 5,
          "material": 0,
          "mode": 4
        }
      ]
    },
    {
      "primitives": [
        {
          "attributes": {
            "COLOR_0": 9,
            "NORMAL": 7,
            "POSITION": 6,
            "TANGENT": 8,
            "TEXCOORD_0": 10
          },
          "indices": 11,
          "material": 0,
          "mode": 4
        }
      ]
    },
    {
      "primitives": [
        {
          "attributes": {
            "COLOR_0": 15,
            "NORMAL": 13,
            "POSITION": 12,
            "TANGENT": 14,
            "TEXCOORD_0": 16
          },
          "indices": 17,
          "material": 0,
          "mode": 4
        }
      ]
    },
    {
      "primitives": [
        {
          "attributes": {
            "COLOR_0": 21,
            "NORMAL": 19,
            "POSITION": 18,
            "TANGENT": 20,
            "TEXCOORD_0": 22
          },
          "indices": 23,
          "material": 0,
          "mode": 4
        }
      ]
    },
    {
      "primitives": [
        {
          "attributes": {
            "COLOR_0": 27,
            "NORMAL": 25,
            "POSITION": 24,
            "TANGENT": 26,
            "TEXCOORD_0": 28
          },
          "indices": 29,
          "material": 0,
          "mode": 4
        }
      ]
    },
    {
      "primitives": [
        {
          "attributes": {
            "COLOR_0": 33,
            "NORMAL": 31,
            "POSITION": 30,
            "TANGENT": 32,
            "TEXCOORD_0": 34
          },
          "indices": 35,
          "material": 0,
          "mode": 4
        }
      ]
    },
    {
      "primitives": [
        {
          "attributes": {
            "COLOR_0": 39,
            "NORMAL": 37,
            "POSITION": 36,
            "TANGENT": 38,
            "TEXCOORD_0": 40
          },
          "indices": 41,
          "material": 0,
          "mode": 4
        }
      ]
    }
  ],
  "nodes": [
    {
      "children": [
        1
      ],
      "name": "RootNode (gltf orientation matrix)",
      "rotation": [
        -0.70710678118654746,
        -0,
        -0,
        0.70710678118654757
      ]
    },
    {
      "children": [
        2
      ],
      "matrix": [
        -0.97225648164749146,
        -0.23391726613044739,
        0,
        0,
        0,
        0,
        -1,
        0,
        0.23391726613044739,
        -0.97225648164749146,
        0,
        0,
        4.1103978157043457,
        -16.441003799438477,
        -16.928512573242188,
        1
      ],
      "name": "RootNode (model correction matrix)"
    },
    {
      "children": [
        3,
        4,
        5,
        6,
        7,
        8,
        9
      ],
      "name": "georgicus_-_LowPoly.obj.cleaner.materialmerger.gles"
    },
    {
      "mesh": 0,
      "name": ""
    },
    {
      "mesh": 1,
      "name": ""
    },
    {
      "mesh": 2,
      "name": ""
    },
    {
      "mesh": 3,
      "name": ""
    },
    {
      "mesh": 4,
      "name": ""
    },
    {
      "mesh": 5,
      "name": ""
    },
    {
      "mesh": 6,
      "name": ""
    }
  ],
  "samplers": [
    {
      "magFilter": 9729,
      "minFilter": 9987,
      "wrapS": 10497,
      "wrapT": 10497
    }
  ],
  "scene": 0,
  "scenes": [
    {
      "name": "OSG_Scene",
      "nodes": [
        0
      ]
    }
  ],
  "textures": [
    {
      "sampler": 0,
      "source": 0
    }
  ]
}

